<svg width="12" height="13" viewBox="0 0 12 13" fill="none" xmlns="http://www.w3.org/2000/svg">
<g id="Layer_1" clip-path="url(#clip0_120_19)">
<g id="Group 22">
<path id="Vector" d="M7.09664 5.85753C7.09664 7.2647 6.43412 8.33459 6.00007 8.88308C5.56602 8.33459 4.9035 7.2647 4.9035 5.85753C4.9035 4.43841 5.55095 3.21915 6.00034 2.53227C6.44887 3.22182 7.09664 4.46395 7.09664 5.85753Z" stroke="#336647"/>
<path id="Vector_2" d="M0.0729445 7.98654L0.514871 7.75266C0.510097 7.74364 0.503696 7.72611 0.501356 7.70006C0.499736 7.68204 0.500464 7.66405 0.502862 7.64781C1.08132 7.51331 1.98711 7.43913 2.84626 7.92272L2.84627 7.92272C3.79299 8.45559 4.37797 9.48753 4.66546 10.1451L4.66558 10.1454C4.6841 10.1877 4.68853 10.2218 4.68835 10.2442C4.2214 10.4192 3.41475 10.5754 2.53757 10.0817C1.57834 9.54182 0.897989 8.4756 0.514741 7.75241L0.0729445 7.98654ZM0.0729445 7.98654C0.462995 8.72256 1.19945 9.90232 2.29232 10.5174C3.38519 11.1326 4.39259 10.9014 4.92811 10.6875L5.12359 9.94484C4.82446 9.26063 4.18438 8.10213 3.09151 7.487C2.02229 6.88516 0.911234 7.02466 0.283881 7.18675C0.0293026 7.25318 -0.0852576 7.68761 0.0729445 7.98654Z" stroke="#336647"/>
<path id="Vector_3" d="M9.15468 7.92272L9.15469 7.92272C10.0138 7.43913 10.9196 7.51331 11.4981 7.64781C11.5005 7.66405 11.5012 7.68204 11.4996 7.70006C11.4973 7.72611 11.4909 7.74364 11.4861 7.75266L11.9279 7.9865L11.4862 7.75241C11.103 8.4756 10.4226 9.54182 9.46338 10.0817C8.5862 10.5754 7.77955 10.4192 7.31259 10.2442C7.31242 10.2218 7.31685 10.1877 7.33537 10.1454L7.33549 10.1451C7.62298 9.48753 8.20796 8.45559 9.15468 7.92272Z" stroke="#336647"/>
</g>
</g>
<defs>
<clipPath id="clip0_120_19">
<rect width="12" height="13" fill="white"/>
</clipPath>
</defs>
</svg>
