<svg width="12" height="13" viewBox="0 0 12 13" fill="none" xmlns="http://www.w3.org/2000/svg">
<g id="Layer_1">
<path id="Vector" d="M10.3399 5.48889L10.7306 5.17691C10.6552 5.08248 10.614 4.94757 10.6474 4.79015C10.6846 4.62696 10.8193 4.49658 10.9706 4.46443L11.0144 4.45511C11.2757 4.427 11.5 4.62867 11.5 4.89756C11.5 5.14398 11.3089 5.33414 11.0814 5.34244C10.9931 5.34077 10.9123 5.35757 10.8408 5.3868C10.8192 5.31343 10.7828 5.24175 10.7294 5.17539L10.3399 5.48889ZM10.3399 5.48889C10.3781 5.5364 10.3711 5.6068 10.3294 5.6508L10.3614 4.28003C10.2637 4.39445 10.1926 4.53249 10.1591 4.68285C10.093 4.98907 10.1712 5.2777 10.3399 5.48889ZM10.3503 6.35619L8.91252 7.87579L8.91222 7.87611C8.5103 8.30013 7.81552 8.20039 7.54546 7.68775M10.3503 6.35619L7.98783 7.45471M10.3503 6.35619L9.52666 9.99935M10.3503 6.35619L9.50101 10.1128M7.54546 7.68775L7.98783 7.45471M7.54546 7.68775L7.54572 7.68824L7.98783 7.45471M7.54546 7.68775L6.00127 4.76443M7.98783 7.45471L6.39722 4.4435C6.36593 4.38366 6.38679 4.30799 6.44589 4.27455C6.79009 4.08624 7.00391 3.6885 6.91525 3.24676C6.84398 2.88774 6.55715 2.59559 6.20426 2.52168C6.06345 2.49176 5.92612 2.49528 5.79922 2.52344M6.00127 4.76443L6.04837 4.67528L6.04837 4.67528L6.04933 4.67344C6.05975 4.65352 6.069 4.63321 6.0771 4.61259C6.07738 4.61188 6.07766 4.61117 6.07794 4.61046C6.15507 4.41208 6.12598 4.18607 6.00238 4.0148M6.00127 4.76443L5.95511 4.67704L5.95414 4.6752L5.95414 4.6752C5.94298 4.65385 5.93316 4.63206 5.92465 4.60992C5.92438 4.60922 5.92411 4.60852 5.92384 4.60782C5.84858 4.40982 5.87861 4.18501 6.00238 4.0148M6.00127 4.76443L4.45776 7.68648L4.45732 7.68731C4.18477 8.20096 3.49252 8.29769 3.09126 7.87435L3.09096 7.87403L1.64805 6.34905M6.00238 4.0148C6.05283 3.94541 6.11886 3.88509 6.19969 3.83937L6.20589 3.83586L6.20591 3.8359C6.36613 3.74825 6.46889 3.56367 6.42503 3.34515L6.42482 3.34412C6.3919 3.17828 6.25503 3.04316 6.10175 3.01106L6.10034 3.01076C6.03298 2.99645 5.9681 2.99812 5.90753 3.01156L5.89671 3.01397M6.00238 4.0148C5.95176 3.94467 5.8853 3.88372 5.80379 3.83761L5.8038 3.83758L5.7991 3.83499C5.66343 3.76015 5.57084 3.61533 5.57084 3.44387V3.4087M5.89671 3.01397L5.90733 3.01067L5.91005 3.00983C5.91412 3.00854 5.91414 3.00854 5.91358 3.00871C5.91292 3.00891 5.91068 3.00958 5.90729 3.01049C5.90596 3.01085 5.90444 3.01125 5.90278 3.01167L5.82593 2.70804L5.79922 2.52344M5.89671 3.01397L5.89272 3.0152C5.88744 3.01679 5.88077 3.01874 5.87307 3.02084M5.89671 3.01397L5.88928 3.01561L5.87668 3.01743L5.87731 3.01959C5.87589 3.02 5.87448 3.02041 5.87307 3.02084M5.79922 2.52344C5.79922 2.52344 5.78705 2.5252 5.7801 2.52696M5.79922 2.52344L5.8259 2.70794L5.7801 2.52696M5.7801 2.52696C5.77314 2.52872 5.76619 2.53092 5.75924 2.53312C5.75228 2.53532 5.74533 2.53752 5.73837 2.53928L5.86464 2.9758L5.8259 2.70795L5.7801 2.52696ZM5.57084 3.4087V3.39764M5.57084 3.4087V3.39764M5.57084 3.4087C5.57251 3.39106 5.57367 3.3804 5.57467 3.37306M5.57084 3.39764C5.57086 3.3943 5.57086 3.39151 5.57085 3.38934C5.57224 3.38377 5.57351 3.37834 5.57467 3.37306M5.57084 3.39764L5.57467 3.37306M5.57467 3.37306L5.07084 3.44387C5.07084 3.80289 5.26728 4.11264 5.55758 4.27279C5.61669 4.30623 5.63755 4.3819 5.60626 4.44174L4.01565 7.45295C3.90265 7.6659 3.6193 7.70462 3.45415 7.53038L1.67405 5.64904C1.63233 5.60504 1.62538 5.53464 1.66362 5.48713M5.57467 3.37306C5.57744 3.36034 5.57955 3.34851 5.58117 3.33783M5.57467 3.37306L5.86106 3.02399C5.86528 3.02292 5.8693 3.02186 5.87307 3.02084M1.64805 6.34905L1.54998 5.91528V5.90676L1.5354 5.84772L1.53018 5.8266L1.52644 5.81144L1.52176 5.79655C1.52152 5.79578 1.52127 5.79499 1.52101 5.79417L1.67403 5.64906L1.52093 5.79392C1.50822 5.75376 1.47226 5.6477 1.38485 5.54815C1.32774 5.4831 1.2523 5.42555 1.16181 5.38796M1.64805 6.34905L1.31124 5.99308C1.31113 5.99297 1.31102 5.99285 1.31091 5.99273C1.3109 5.99272 1.31088 5.9927 1.31086 5.99268C1.30422 5.98566 1.29773 5.97847 1.29141 5.9711L9.50095 10.1131L9.50101 10.1128M1.64805 6.34905L2.47334 9.99935M1.16181 5.38796C1.18305 5.31443 1.21915 5.24255 1.27225 5.17595M1.16181 5.38796C1.08975 5.35802 1.00814 5.34075 0.918652 5.34243M1.16181 5.38796C1.11171 5.5614 1.14427 5.74398 1.23125 5.88785C1.23346 5.89151 1.23571 5.89514 1.23799 5.89875C1.24211 5.90526 1.24634 5.91169 1.25068 5.91802C1.2522 5.92025 1.25375 5.92247 1.2553 5.92468L1.06555 5.96758L0.921339 5.84263M1.27225 5.17595C1.27205 5.17621 1.27184 5.17647 1.27164 5.17673L1.66362 5.48713M1.27225 5.17595C1.27287 5.17518 1.27349 5.1744 1.27411 5.17363L1.66362 5.48713M1.27225 5.17595C1.3509 5.07618 1.38998 4.94072 1.35637 4.78976L1.35581 4.78727L1.35582 4.78726C1.32087 4.62644 1.18727 4.49554 1.03303 4.4627L1.13689 3.97363L1.03292 4.46267C0.752001 4.40308 0.5 4.61256 0.5 4.89756C0.5 5.14284 0.691641 5.33411 0.918652 5.34243M1.66362 5.48713C1.83225 5.27418 1.91221 4.98555 1.84442 4.68109L1.1369 3.9736C0.531943 3.84513 0 4.30799 0 4.89756C0 5.41497 0.411995 5.83559 0.921339 5.84263M0.918652 5.34243C0.908893 5.34262 0.899041 5.34303 0.889097 5.34367L0.921339 5.84263M0.918652 5.34243C0.921844 5.34255 0.925043 5.34263 0.928248 5.34268L0.921339 5.84263M2.47334 9.99935H2.35376C2.42708 9.99935 2.48465 10.0498 2.49899 10.1128L2.47334 9.99935ZM2.47334 9.99935H9.52666M9.52666 9.99935L9.50101 10.1128M9.52666 9.99935H9.64624C9.57292 9.99935 9.51535 10.0498 9.50101 10.1128M5.58117 3.33783L5.58507 3.32596L5.58881 3.31191C5.59146 3.30194 5.59737 3.28456 5.61284 3.24895L5.61432 3.24555M5.58117 3.33783C5.58159 3.33499 5.58199 3.33224 5.58235 3.32956L5.5797 3.3423L5.58053 3.33977L5.58117 3.33783ZM5.61432 3.24555C5.61781 3.23855 5.62076 3.23287 5.6233 3.2282C5.62619 3.2229 5.62793 3.22006 5.62852 3.21912L5.63099 3.21523M5.61432 3.24555C5.61389 3.24641 5.61346 3.24728 5.61302 3.24818M5.61432 3.24555L5.6162 3.24123L5.61929 3.23341C5.61685 3.23958 5.6144 3.24506 5.61298 3.24815L5.59168 3.23763C5.59169 3.236 5.5917 3.23435 5.5917 3.23268L5.61302 3.24818M5.63099 3.21523C5.63238 3.21315 5.63389 3.21086 5.63549 3.20839C5.63859 3.2036 5.64219 3.19788 5.64612 3.1913M5.63099 3.21523L5.64288 3.19651L5.64332 3.19562M5.63099 3.21523C5.63008 3.2166 5.62922 3.21788 5.62842 3.21906C5.62735 3.22063 5.62639 3.22202 5.62557 3.22321L5.62233 3.22785L5.62827 3.21896L5.62908 3.21774C5.63225 3.21284 5.63639 3.20623 5.64107 3.1981L5.64332 3.19562M5.64612 3.1913C5.67008 3.15483 5.69784 3.12406 5.72779 3.09938L5.7279 3.0995L5.73752 3.09115C5.74026 3.08878 5.74526 3.08468 5.75813 3.07582M5.64612 3.1913C5.64518 3.19273 5.64425 3.19417 5.64332 3.19562M5.64612 3.1913C5.65245 3.1807 5.65963 3.16788 5.66691 3.15314L5.57084 3.10569V2.94387L5.64332 3.19562M5.75813 3.07582C5.76195 3.07344 5.76699 3.07025 5.77266 3.06652C5.80134 3.04806 5.83564 3.03209 5.87307 3.02084M5.75813 3.07582C5.75499 3.07777 5.75269 3.07917 5.75155 3.07986L5.75137 3.07997M5.75813 3.07582C5.76001 3.07453 5.76206 3.07313 5.76429 3.07163C5.76429 3.07163 5.76429 3.07163 5.76429 3.07163L5.75137 3.07997M5.75137 3.07997L5.75111 3.08013L5.75137 3.07997ZM5.61302 3.24818C5.61289 3.24843 5.61278 3.24866 5.61267 3.24887C5.61132 3.25163 5.61155 3.25124 5.61265 3.24886C5.61275 3.24864 5.61286 3.24841 5.61298 3.24816L5.61302 3.24818ZM5.8647 2.97599L5.82593 2.70805L5.8647 2.97599ZM5.621 3.22976C5.62071 3.23017 5.62067 3.23023 5.62107 3.22966L5.6213 3.22932C5.62118 3.2295 5.62108 3.22964 5.621 3.22976Z" stroke="#374D71"/>
</g>
</svg>
