<svg width="33" height="34" viewBox="0 0 33 34" fill="none" xmlns="http://www.w3.org/2000/svg">
<g id="Layer_1">
<g id="Group 22">
<path id="Vector" d="M16.5082 25.1404L16.5149 25.1347C16.5206 25.1414 16.5244 25.1445 16.5257 25.1455C16.527 25.1465 16.5265 25.1459 16.5241 25.1448C16.5207 25.1432 16.5157 25.1415 16.5095 25.1406L16.4996 25.1489L17.244 25.7833M16.5082 25.1404C16.5053 25.14 16.5022 25.1398 16.4989 25.1398C16.4956 25.1398 16.4925 25.14 16.4896 25.1404M16.5082 25.1404L16.4989 25.1483L16.4896 25.1404M16.5082 25.1404H16.4896M17.244 25.7833L16.4989 25.1496L15.7538 25.7833M17.244 25.7833C16.8389 26.2586 16.1588 26.2586 15.7538 25.7833M17.244 25.7833C18.4967 24.3106 20.8895 20.8871 20.8895 16.2036C20.8895 11.6003 18.5767 7.62968 17.309 5.79773C16.9014 5.21195 16.0988 5.21195 15.6913 5.79773C14.4236 7.62968 12.1083 11.5201 12.1083 16.2036C12.1083 20.8871 14.5011 24.3106 15.7538 25.7833M15.7538 25.7833L16.4981 25.1489L16.4883 25.1406C16.4821 25.1415 16.4771 25.1432 16.4736 25.1448C16.4721 25.1455 16.4714 25.146 16.4714 25.146C16.4714 25.146 16.4716 25.1458 16.4721 25.1455C16.4733 25.1445 16.4772 25.1414 16.4829 25.1347L16.4896 25.1404M19.8895 16.2036C19.8895 20.5257 17.686 23.7147 16.4989 25.1158C15.3118 23.7147 13.1083 20.5257 13.1083 16.2036C13.1083 11.8454 15.2655 8.17438 16.5001 6.38624C17.7325 8.17169 19.8895 11.9231 19.8895 16.2036Z" stroke="#374D71" stroke-width="2"/>
<path id="Vector_2" d="M8.00984 21.5562L8.00983 21.5562C5.43017 20.1042 2.71894 20.4019 1.09795 20.8098C1.07884 20.8396 1.05188 20.8931 1.03055 20.974C0.973353 21.1909 0.999135 21.432 1.08305 21.5906L8.00984 21.5562ZM8.00984 21.5562C10.7229 23.0833 12.373 26.0161 13.1723 27.8444L13.1725 27.8449M8.00984 21.5562L13.1725 27.8449M13.1725 27.8449C13.2804 28.0913 13.2807 28.303 13.2468 28.4315M13.1725 27.8449L13.2468 28.4315M13.2468 28.4315C13.2303 28.4938 13.2085 28.5279 13.1965 28.5427M13.2468 28.4315L13.1965 28.5427M13.1965 28.5427C13.1865 28.5549 13.1813 28.557 13.1782 28.5583M13.1965 28.5427L13.1782 28.5583M13.1782 28.5583L13.178 28.5583M13.1782 28.5583L13.178 28.5583M13.178 28.5583L13.551 29.4862M13.178 28.5583L13.551 29.4862M13.551 29.4862L13.1801 28.5575C11.8645 29.0829 9.43711 29.6353 6.79304 28.1471M13.551 29.4862L6.79304 28.1471M6.79304 28.1471C4.05516 26.606 2.14219 23.5891 1.08311 21.5907L6.79304 28.1471Z" stroke="#374D71" stroke-width="2"/>
<path id="Vector_3" d="M24.9902 21.5562L24.9902 21.5562C27.5698 20.1042 30.2811 20.4019 31.9021 20.8098C31.9212 20.8396 31.9481 20.8931 31.9694 20.974C32.0267 21.191 32.0009 21.4321 31.9169 21.5907L32.8007 22.0585L31.9171 21.5903C30.8581 23.5886 28.9451 26.6059 26.207 28.1471C23.5629 29.6353 21.1355 29.0829 19.8199 28.5575L19.449 29.4862L19.822 28.5583L19.8218 28.5583C19.8187 28.557 19.8135 28.5549 19.8035 28.5427C19.7915 28.5279 19.7697 28.4938 19.7532 28.4315C19.7193 28.303 19.7196 28.0913 19.8275 27.8449L19.8277 27.8444C20.627 26.0161 22.2771 23.0833 24.9902 21.5562Z" stroke="#374D71" stroke-width="2"/>
</g>
</g>
</svg>
