<svg width="71" height="12" viewBox="0 0 71 12" fill="none" xmlns="http://www.w3.org/2000/svg">
<g id="Layer_1" clip-path="url(#clip0_43_122)">
<path id="Vector" d="M5.77125 0.402344L7.54678 4.03554L11.5425 4.60343L8.64279 7.41775L9.33797 11.4023L5.77125 9.50731L2.20454 11.4023L2.90285 7.41775L0 4.60343L3.99885 4.03554L5.77125 0.402344Z" fill="#F8BE01"/>
<path id="Vector_2" d="M20.5642 0.402344L22.3397 4.03554L26.3354 4.60343L23.4357 7.41775L24.1309 11.4023L20.5642 9.50731L16.9975 11.4023L17.6927 7.41775L14.7929 4.60343L18.7918 4.03554L20.5642 0.402344Z" fill="#F8BE01"/>
<path id="Vector_3" d="M35.3571 0.402344L37.1295 4.03554L41.1284 4.60343L38.2287 7.41775L38.9239 11.4023L35.3571 9.50731L31.7904 11.4023L32.4856 7.41775L29.5859 4.60343L33.5816 4.03554L35.3571 0.402344Z" fill="#F8BE01"/>
<path id="Vector_4" d="M50.1501 0.402344L51.9225 4.03554L55.9213 4.60343L53.0185 7.41775L53.7168 11.4023L50.1501 9.50731L46.5834 11.4023L47.2785 7.41775L44.3788 4.60343L48.3746 4.03554L50.1501 0.402344Z" fill="#F8BE01"/>
<path id="Vector_5" d="M64.943 0.402344L66.7154 4.03554L70.7143 4.60343L67.8114 7.41775L68.5097 11.4023L64.943 9.50731L61.3763 11.4023L62.0715 7.41775L59.1718 4.60343L63.1675 4.03554L64.943 0.402344Z" fill="#F8BE01"/>
</g>
<defs>
<clipPath id="clip0_43_122">
<rect width="70.7143" height="11" fill="white" transform="translate(0 0.402344)"/>
</clipPath>
</defs>
</svg>
