<svg width="33" height="34" viewBox="0 0 33 34" fill="none" xmlns="http://www.w3.org/2000/svg">
<path fill-rule="evenodd" clip-rule="evenodd" d="M16.4998 7.83099C15.4179 9.43081 13.6779 12.514 13.6779 16.1446C13.6779 19.7452 15.4566 22.4347 16.4988 23.6984C17.541 22.4347 19.3198 19.7452 19.3198 16.1446C19.3198 12.5791 17.5797 9.43252 16.4998 7.83099ZM14.9751 6.51764C15.7277 5.43601 17.2722 5.43601 18.0247 6.51764L18.0261 6.51973C19.167 8.16841 21.3198 11.8314 21.3198 16.1446C21.3198 20.5617 19.0688 23.7659 17.909 25.1294L17.9083 25.1302C17.1566 26.0123 15.8411 26.0123 15.0893 25.1302L15.0887 25.1294C13.9289 23.7659 11.6779 20.5617 11.6779 16.1446C11.6779 11.7594 13.8351 8.16509 14.9737 6.51973L14.9751 6.51764Z" fill="#374D71"/>
<path fill-rule="evenodd" clip-rule="evenodd" d="M24.2119 20.4226C27.0401 18.8307 29.946 19.2139 31.5282 19.6226L31.5305 19.6232C32.3252 19.8306 32.7139 20.5352 32.8545 21.0682C33.0045 21.6369 32.9747 22.3293 32.6559 22.9318L32.6556 22.9323C31.7285 24.6817 29.8915 27.6719 27.0646 29.263C24.1437 30.907 21.4414 30.2822 20.03 29.7185L20.028 29.7177C18.7167 29.1906 18.5848 27.6601 19.0268 26.6499C19.7507 24.9942 21.36 22.0278 24.2119 20.4226ZM30.9046 21.5281C29.5351 21.1939 27.3083 20.9748 25.1929 22.1655L25.1929 22.1655C22.9256 23.4416 21.5367 25.9018 20.8594 27.451L20.8591 27.4516C20.7793 27.634 20.784 27.78 20.8035 27.8537C20.806 27.8632 20.8083 27.8706 20.8104 27.8764C21.9158 28.3098 23.9109 28.743 26.0836 27.5201C28.3757 26.23 29.9882 23.6944 30.8882 21.9962M20.8167 27.8909C20.8178 27.8924 20.8183 27.8933 20.8182 27.8934C20.8182 27.8934 20.8176 27.8927 20.8167 27.8909ZM30.9046 21.5281C30.9099 21.5418 30.9154 21.5584 30.9206 21.5782C30.9385 21.6462 30.9463 21.7273 30.939 21.8084C30.9318 21.8888 30.9114 21.9522 30.8884 21.9957" fill="#374D71"/>
<path fill-rule="evenodd" clip-rule="evenodd" d="M8.79156 20.4226C5.96331 18.8307 3.05744 19.2139 1.47526 19.6226L1.47293 19.6232C0.678225 19.8306 0.28948 20.5352 0.148919 21.0682C-0.00105 21.6369 0.028698 22.3293 0.347527 22.9318L0.347785 22.9323C1.27491 24.6817 3.11195 27.6719 5.9388 29.263C8.85969 30.907 11.562 30.2822 12.9734 29.7185L12.9755 29.7177C14.2867 29.1906 14.4187 27.6601 13.9766 26.6499C13.2527 24.9942 11.6434 22.0278 8.79156 20.4226ZM2.09879 21.5281C3.4683 21.1939 5.69511 20.9748 7.81055 22.1655L7.81056 22.1655C10.0778 23.4416 11.4667 25.9018 12.144 27.451L12.1443 27.4516C12.2242 27.634 12.2194 27.78 12.2 27.8537C12.1975 27.8632 12.1951 27.8706 12.193 27.8764C11.0877 28.3098 9.09251 28.743 6.91979 27.5201C4.62773 26.23 3.0152 23.6944 2.11523 21.9962M12.1867 27.8909C12.1856 27.8924 12.1851 27.8933 12.1852 27.8934C12.1852 27.8934 12.1858 27.8927 12.1867 27.8909ZM2.09879 21.5281C2.09356 21.5418 2.08803 21.5584 2.0828 21.5782C2.06487 21.6462 2.05712 21.7273 2.0644 21.8084C2.07163 21.8888 2.092 21.9522 2.11497 21.9957" fill="#374D71"/>
</svg>
