<svg width="33" height="34" viewBox="0 0 33 34" fill="none" xmlns="http://www.w3.org/2000/svg">
<path fill-rule="evenodd" clip-rule="evenodd" d="M15.5652 4.44916L28.3992 4.98753L28.9376 17.8216L17.4726 29.2788C16.3987 30.3527 14.6474 30.3527 13.5736 29.2788L4.10402 19.8054C4.10397 19.8054 4.10407 19.8055 4.10402 19.8054C3.03032 18.7315 3.03022 16.9802 4.10402 15.9064L15.5652 4.44916ZM16.3584 6.48419L5.51824 17.3206C5.5182 17.3206 5.51828 17.3205 5.51824 17.3206C5.22556 17.6134 5.22547 18.0984 5.51824 18.3912L14.9878 27.8646C14.9878 27.8647 14.9877 27.8646 14.9878 27.8646C15.2806 28.1573 15.7656 28.1574 16.0584 27.8646L26.9025 17.0282L26.478 6.90869L16.3584 6.48419Z" fill="#374D71"/>
<path fill-rule="evenodd" clip-rule="evenodd" d="M19.4787 12.626C19.408 13.262 19.8663 13.8349 20.5023 13.9055C21.1383 13.9762 21.7112 13.5179 21.7819 12.8819C21.8526 12.2459 21.3942 11.673 20.7582 11.6023C20.1222 11.5316 19.5493 11.99 19.4787 12.626ZM20.2815 15.8933C18.5476 15.7007 17.2983 14.1389 17.4909 12.4051C17.6835 10.6713 19.2453 9.42191 20.9791 9.61455C22.7129 9.80719 23.9623 11.3689 23.7697 13.1027C23.577 14.8366 22.0153 16.0859 20.2815 15.8933Z" fill="#374D71"/>
<path fill-rule="evenodd" clip-rule="evenodd" d="M18.221 27.1167L6.2666 15.1624L7.68081 13.7482L19.6352 25.7025L18.221 27.1167Z" fill="#374D71"/>
</svg>
