<svg width="33" height="23" viewBox="0 0 33 23" fill="none" xmlns="http://www.w3.org/2000/svg">
<rect width="33" height="23" fill="#1E1E1E"/>
<rect width="1440" height="7314" transform="translate(-550 -4557)" fill="white"/>
<rect width="480" height="300" transform="translate(-70 -78)" fill="#C5E6FF"/>
<g clip-path="url(#clip0_0_1)">
<path d="M28.4264 8.71553L29.2078 8.09158C28.9307 7.74452 28.7897 7.25845 28.9061 6.71407C29.039 6.12534 29.5196 5.65235 30.0824 5.53269L30.2214 5.50313C31.1744 5.3882 31.9904 6.12782 31.9904 7.08985C31.9904 7.97048 31.3016 8.66371 30.4668 8.68765C30.0433 8.67708 29.7033 8.86363 29.4816 9.10487C29.5316 8.76482 29.455 8.39864 29.2054 8.08854L28.4264 8.71553ZM28.4264 8.71553C28.5315 8.84617 28.5124 9.0397 28.3977 9.16066L28.7631 5.11276C28.3517 5.46884 28.051 5.95477 27.9293 6.49957C27.7477 7.34144 27.9628 8.13493 28.4264 8.71553ZM29.1174 9.85499L24.2302 15.0202L24.2296 15.0208C23.3023 15.9991 21.6998 15.7697 21.076 14.587L29.1174 9.85499ZM29.1174 9.85499L29.1038 9.90992V9.9296L26.4901 21.4903H6.50036L3.8866 9.92961V9.90992L3.86802 9.83468C3.87065 9.8375 3.87329 9.84031 3.87593 9.84311C3.87604 9.84322 3.87614 9.84333 3.87625 9.84344C3.87639 9.8436 3.87654 9.84375 3.87669 9.84391L8.76978 15.0153L8.77038 15.016C9.69664 15.9932 11.2934 15.7707 11.9232 14.5839L11.924 14.5822L16.297 6.30379L16.2989 6.30011C16.6262 5.6743 16.4196 4.8686 15.7713 4.50187L15.7714 4.50182L15.762 4.49663C15.2731 4.22696 14.9408 3.70527 14.9408 3.09337V2.97909M29.1174 9.85499L14.9408 2.97909M14.9408 2.97909C14.9471 2.91071 14.9518 2.86626 14.9572 2.83111C14.967 2.7885 14.9732 2.75026 14.9771 2.71855C14.9772 2.71799 14.9773 2.71744 14.9774 2.71688L14.9781 2.71494L14.9862 2.69003L14.9953 2.6624L15.0028 2.63429C15.0172 2.58007 15.042 2.51236 15.0873 2.40817L15.094 2.39272L15.0946 2.39121C15.0949 2.39067 15.0951 2.3901 15.0954 2.3895L14.9408 2.97909ZM3.52167 9.12101C3.46555 8.77668 3.53921 8.40363 3.79112 8.08806C4.07458 7.72902 4.21257 7.24197 4.09458 6.71208L4.09347 6.70708L4.09348 6.70708C3.96628 6.12173 3.48679 5.64895 2.91782 5.52789L3.52167 9.12101ZM3.52167 9.12101C3.30125 8.87236 2.95686 8.67684 2.52369 8.68765C1.69003 8.66365 1 7.96688 1 7.08985C1 6.07815 1.90254 5.31242 2.91761 5.52785L3.52167 9.12101ZM16.703 6.30862L21.0754 14.5861L15.1577 2.27467L15.1669 2.26019C15.1705 2.25493 15.1744 2.24898 15.1786 2.24246C15.186 2.23099 15.1948 2.21709 15.2043 2.20097C15.291 2.06734 15.3939 1.95171 15.5086 1.85719L15.5185 1.84908L15.5281 1.84073C15.5508 1.82105 15.5786 1.79975 15.6259 1.76747C15.635 1.76188 15.6492 1.75303 15.6656 1.7422C15.7768 1.67031 15.9058 1.61095 16.0437 1.57003C16.0626 1.56495 16.0791 1.56012 16.0925 1.55612C16.1022 1.55319 16.1116 1.55028 16.1195 1.54782L16.1234 1.54726L16.1599 1.53916C16.3761 1.49118 16.6087 1.48519 16.8489 1.53623L16.8518 1.53683C17.4227 1.65642 17.9113 2.14552 18.0306 2.74619L18.031 2.74825C18.1851 3.51624 17.8194 4.18338 17.2411 4.49978L17.2349 4.5032L17.2287 4.5067C16.5804 4.87344 16.3738 5.67914 16.7011 6.30496L16.703 6.30862ZM15.1474 2.28851L15.1487 2.28663C15.1468 2.28932 15.1454 2.29131 15.1474 2.28851Z" stroke="#374D71" stroke-width="2"/>
</g>
<defs>
<clipPath id="clip0_0_1">
<rect width="33" height="22" fill="white" transform="translate(0 0.5)"/>
</clipPath>
</defs>
</svg>
