<svg width="33" height="34" viewBox="0 0 33 34" fill="none" xmlns="http://www.w3.org/2000/svg">
<path fill-rule="evenodd" clip-rule="evenodd" d="M3.13299 11.6351C2.80106 11.6351 2.57013 11.8926 2.57013 12.1636C2.57013 12.4347 2.80106 12.6921 3.13299 12.6921C3.46491 12.6921 3.69585 12.4347 3.69585 12.1636C3.69585 11.8926 3.46491 11.6351 3.13299 11.6351ZM0.570129 12.1636C0.570129 10.7463 1.73863 9.63513 3.13299 9.63513C4.52735 9.63513 5.69585 10.7463 5.69585 12.1636C5.69585 13.5809 4.52735 14.6921 3.13299 14.6921C1.73863 14.6921 0.570129 13.5809 0.570129 12.1636Z" fill="#374D71"/>
<path fill-rule="evenodd" clip-rule="evenodd" d="M29.8671 11.6351C29.5351 11.6351 29.3042 11.8926 29.3042 12.1636C29.3042 12.4347 29.5351 12.6921 29.8671 12.6921C30.199 12.6921 30.4299 12.4347 30.4299 12.1636C30.4299 11.8926 30.199 11.6351 29.8671 11.6351ZM27.3042 12.1636C27.3042 10.7463 28.4727 9.63513 29.8671 9.63513C31.2614 9.63513 32.4299 10.7463 32.4299 12.1636C32.4299 13.5809 31.2614 14.6921 29.8671 14.6921C28.4727 14.6921 27.3042 13.5809 27.3042 12.1636Z" fill="#374D71"/>
<path fill-rule="evenodd" clip-rule="evenodd" d="M16.221 11.1118L17.9743 10.1496L22.4446 18.2951L27.5898 13.0424L29.0186 14.4419L23.7928 19.777C22.9039 20.6829 21.3703 20.4936 20.7504 19.365L16.221 11.1118Z" fill="#374D71"/>
<path fill-rule="evenodd" clip-rule="evenodd" d="M16.68 11.1118L14.9267 10.1496L10.4564 18.2951L5.31117 13.0424L3.8824 14.4419L9.10823 19.777C9.99711 20.6829 11.5307 20.4936 12.1506 19.365L16.68 11.1118Z" fill="#374D71"/>
<path fill-rule="evenodd" clip-rule="evenodd" d="M25.8446 25.4954L28.5125 14.1418L30.4595 14.5994L27.7728 26.0327C27.7727 26.033 27.7726 26.0333 27.7726 26.0337C27.5686 26.9056 26.7844 27.4954 25.9137 27.4954H6.89765C6.12414 27.4954 5.42578 26.9696 5.24517 26.1903C5.24501 26.1896 5.24484 26.1889 5.24468 26.1882L2.54047 14.6426L4.48777 14.1865L7.13654 25.4954H25.8446Z" fill="#374D71"/>
<path fill-rule="evenodd" clip-rule="evenodd" d="M16.5 7.92371C16.1681 7.92371 15.9371 8.18116 15.9371 8.45221C15.9371 8.72326 16.1681 8.98072 16.5 8.98072C16.8319 8.98072 17.0628 8.72326 17.0628 8.45221C17.0628 8.18116 16.8319 7.92371 16.5 7.92371ZM13.9371 8.45221C13.9371 7.03492 15.1056 5.92371 16.5 5.92371C17.8944 5.92371 19.0628 7.03492 19.0628 8.45221C19.0628 9.8695 17.8944 10.9807 16.5 10.9807C15.1056 10.9807 13.9371 9.8695 13.9371 8.45221Z" fill="#374D71"/>
</svg>
